<svg width="161" height="24" viewBox="0 0 161 24" fill="none" xmlns="http://www.w3.org/2000/svg">
<g clip-path="url(#clip0_154_1391)">
<g clip-path="url(#clip1_154_1391)">
<path d="M26.6065 23.3908H19.8937V11.7322C19.6907 12.6102 19.4848 13.4932 19.2759 14.3643L17.0784 23.3908H9.52511L7.28721 14.3673C7.09013 13.5513 6.89304 12.7265 6.70877 11.9037V23.3908H0V0.513184H10.5923L12.6499 9.61259C12.9268 10.8463 13.186 12.1028 13.4175 13.3276C13.6708 12.0091 13.9102 10.8641 14.195 9.6116L16.2812 0.513184H26.6065V23.3908ZM20.7353 22.5532H25.7688V1.35079H16.9493L15.012 9.79785C14.5843 11.6889 14.267 13.2715 13.8413 15.6355L13.7792 15.9804H13.0332L12.9751 15.6296C12.6676 13.7721 12.2725 11.7549 11.832 9.79489L9.92322 1.35079H0.837611V22.5532H5.87116V7.73339H6.6595L6.89797 8.87549C7.2744 10.6158 7.66364 12.4151 8.09624 14.1662L10.1765 22.5532H16.4162L18.457 14.1672C18.8216 12.6723 19.1724 11.1351 19.5114 9.65693C19.6329 9.12612 19.7548 8.59432 19.877 8.06153L19.9519 7.73634H20.7314L20.7353 22.5532Z" fill="#D92112"/>
<path d="M51.6104 13.7072C51.6104 5.73024 56.3148 0 64.6712 0C70.5413 0 73.9962 2.6705 74.3993 7.98982C71.7386 7.97602 69.078 7.93365 66.4232 7.95828C66.3622 7.3148 66.2577 6.59052 65.7335 6.21211C64.0691 5.0099 61.8371 6.60628 60.965 8.05288C59.9707 9.70446 59.7421 11.8162 59.7421 13.7063C59.7421 15.1361 60.2279 16.9128 61.6026 17.6164C63.3674 18.5201 64.8791 17.1631 66.0182 15.9678L73.9075 15.9875C72.4186 22.1957 67.8314 23.7891 61.8489 23.7891C54.3597 23.7891 51.6104 19.267 51.6104 13.7053" fill="#D92112"/>
<path d="M99.5979 0.932129H106.859L107.345 9.86697C107.521 12.4044 107.602 14.5231 107.682 17.3986H107.763C108.775 14.5241 109.585 12.4044 110.557 9.86697L113.809 0.932129H121.286L112.122 22.9721H101.794L99.5979 0.932129Z" fill="#D92112"/>
<path d="M123.042 0.932129H139.617L138.712 6.70868H129.292L128.9 9.17815H137.213L136.364 14.5507H128.05L127.631 17.1956H137.052L136.134 22.9721H119.561L123.042 0.932129Z" fill="#D92112"/>
<path d="M142.33 0.932129H153.748C159.093 0.932129 160.861 3.05079 160.861 6.39828C160.861 10.2316 159.025 12.8094 156.032 14.1053L159.542 22.9741H151.697L149.036 15.1193H147.241L145.999 22.9741H138.847L142.33 0.932129ZM151.263 9.97438C152.761 9.97438 153.597 9.21856 153.611 7.92273C153.611 6.9373 153.166 6.5727 151.991 6.5727H148.593L148.053 9.97438H151.263Z" fill="#D92112"/>
<path d="M39.758 23.9998C35.6901 23.9998 32.589 22.7631 30.5433 20.3232C28.8345 18.2853 27.9309 15.4385 27.9309 12.091C27.9309 8.74348 28.8345 5.89758 30.5433 3.85972C32.589 1.41981 35.6892 0.183105 39.758 0.183105C42.7724 0.183105 44.9295 0.704395 46.5446 1.82187C48.3292 3.05463 49.5127 5.09052 50.1581 8.03595L50.2705 8.54837L42.3398 8.5326L42.2343 8.26654C41.648 6.7815 41.1385 6.55683 39.69 6.55683C37.0185 6.55683 36.7337 10.4266 36.7337 12.091C36.7337 16.6308 38.0532 17.2437 39.3441 17.2437C40.7286 17.2437 40.973 17.0821 41.718 15.6671L41.8362 15.4424H50.4882L50.3148 15.9903C49.4279 18.8037 48.1735 20.7962 46.4845 22.0802C44.7955 23.3642 42.5871 23.9969 39.757 23.9969M39.757 1.0217C35.9493 1.0217 33.066 2.1579 31.1838 4.39776C29.6071 6.28189 28.7675 8.94155 28.7675 12.0841C28.7675 15.2266 29.6032 17.8902 31.1838 19.7704C33.062 22.0102 35.9454 23.1464 39.757 23.1464C42.3969 23.1464 44.4308 22.5759 45.975 21.4013C47.4118 20.3084 48.5125 18.6293 49.3304 16.277H42.3417C41.5721 17.6852 41.0518 18.0754 39.3441 18.0754C36.2893 18.0754 35.8951 14.8718 35.8951 12.0811C35.8951 8.02905 37.2806 5.70542 39.6969 5.70542C40.5108 5.70542 41.1681 5.77736 41.7288 6.12817C42.2058 6.42379 42.5763 6.91059 42.9113 7.68218L49.218 7.69499C48.5962 5.21566 47.5881 3.55621 46.0647 2.50476C44.5974 1.48879 42.593 1.01579 39.758 1.01579" fill="#D92112"/>
<path d="M87.6524 0.0649414C79.3206 0.0649414 74.8044 5.96172 74.8044 13.2588C74.8044 18.1425 76.6216 21.1954 79.7808 22.6873L83.2298 14.4748L79.6705 12.9789L82.7952 5.54784L90.6589 8.85197C90.6589 8.85197 88.827 12.1669 92.6899 14.8798L91.4088 17.9169L86.9459 16.0446L83.7275 23.7092C84.2852 23.7637 84.8646 23.791 85.4657 23.791C93.7975 23.791 98.3127 17.8952 98.3127 10.5981C98.3127 3.2725 94.2262 0.0649414 87.6524 0.0649414Z" fill="#D92112"/>
</g>
</g>
<defs>
<clipPath id="clip0_154_1391">
<rect width="161" height="24" fill="white"/>
</clipPath>
<clipPath id="clip1_154_1391">
<rect width="160.861" height="24" fill="white"/>
</clipPath>
</defs>
</svg>
